[Header]
FileType HTR
DataType HTRS
FileVersion 1
NumSegments 64
NumFrames 4
DataFrameRate 30
EulerRotationOrder ZYX
CalibrationUnits mm
RotationUnits Degrees
GlobalAxisofGravity Y
BoneLengthAxis Y
ScaleFactor 1.0
[SegmentNames&Hierarchy]
Hips	GLOBAL
Spine	Hips
Spine1	Spine
Spine2	Spine1
Neck	Spine2
Head	Neck
LeftEye	Head
RightEye	Head
LeftShoulder	Spine2
LeftArm	LeftShoulder
LeftForeArm	LeftArm
LeftHand	LeftForeArm
LeftHandThumb1	LeftHand
LeftHandThumb2	LeftHandThumb1
LeftHandThumb3	LeftHandThumb2
LeftHandThumb4	LeftHandThumb3
LeftHandIndex1	LeftHand
LeftHandIndex2	LeftHandIndex1
LeftHandIndex3	LeftHandIndex2
LeftHandIndex4	LeftHandIndex3
LeftHandMiddle1	LeftHand
LeftHandMiddle2	LeftHandMiddle1
LeftHandMiddle3	LeftHandMiddle2
LeftHandMiddle4	LeftHandMiddle3
LeftHandRing1	LeftHand
LeftHandRing2	LeftHandRing1
LeftHandRing3	LeftHandRing2
LeftHandRing4	LeftHandRing3
LeftHandPinky1	LeftHand
LeftHandPinky2	LeftHandPinky1
LeftHandPinky3	LeftHandPinky2
LeftHandPinky4	LeftHandPinky3
RightShoulder	Spine2
RightArm	RightShoulder
RightForeArm	RightArm
RightHand	RightForeArm
RightHandPinky1	RightHand
RightHandPinky2	RightHandPinky1
RightHandPinky3	RightHandPinky2
RightHandPinky4	RightHandPinky3
RightHandRing1	RightHand
RightHandRing2	RightHandRing1
RightHandRing3	RightHandRing2
RightHandRing4	RightHandRing3
RightHandMiddle1	RightHand
RightHandMiddle2	RightHandMiddle1
RightHandMiddle3	RightHandMiddle2
RightHandMiddle4	RightHandMiddle3
RightHandIndex1	RightHand
RightHandIndex2	RightHandIndex1
RightHandIndex3	RightHandIndex2
RightHandIndex4	RightHandIndex3
RightHandThumb1	RightHand
RightHandThumb2	RightHandThumb1
RightHandThumb3	RightHandThumb2
RightHandThumb4	RightHandThumb3
LeftUpLeg	Hips
LeftLeg	LeftUpLeg
LeftFoot	LeftLeg
LeftToeBase	LeftFoot
RightUpLeg	Hips
RightLeg	RightUpLeg
RightFoot	RightLeg
RightToeBase	RightFoot
[BasePosition]
Hips	0	0	0	0	0	0	1
Spine	0	0	0	0	0	0	1
Spine1	0	0	0	0	0	0	1
Spine2	0	0	0	0	0	0	1
Neck	0	0	0	0	0	0	1
Head	0	0	0	0	0	0	1
LeftEye	0	0	0	0	0	0	1
RightEye	0	0	0	0	0	0	1
LeftShoulder	0	0	0	0	0	0	1
LeftArm	0	0	0	0	0	0	1
LeftForeArm	0	0	0	0	0	0	1
LeftHand	0	0	0	0	0	0	1
LeftHandThumb1	0	0	0	0	0	0	1
LeftHandThumb2	0	0	0	0	0	0	1
LeftHandThumb3	0	0	0	0	0	0	1
LeftHandThumb4	0	0	0	0	0	0	1
LeftHandIndex1	0	0	0	0	0	0	1
LeftHandIndex2	0	0	0	0	0	0	1
LeftHandIndex3	0	0	0	0	0	0	1
LeftHandIndex4	0	0	0	0	0	0	1
LeftHandMiddle1	0	0	0	0	0	0	1
LeftHandMiddle2	0	0	0	0	0	0	1
LeftHandMiddle3	0	0	0	0	0	0	1
LeftHandMiddle4	0	0	0	0	0	0	1
LeftHandRing1	0	0	0	0	0	0	1
LeftHandRing2	0	0	0	0	0	0	1
LeftHandRing3	0	0	0	0	0	0	1
LeftHandRing4	0	0	0	0	0	0	1
LeftHandPinky1	0	0	0	0	0	0	1
LeftHandPinky2	0	0	0	0	0	0	1
LeftHandPinky3	0	0	0	0	0	0	1
LeftHandPinky4	0	0	0	0	0	0	1
RightShoulder	0	0	0	0	0	0	1
RightArm	0	0	0	0	0	0	1
RightForeArm	0	0	0	0	0	0	1
RightHand	0	0	0	0	0	0	1
RightHandPinky1	0	0	0	0	0	0	1
RightHandPinky2	0	0	0	0	0	0	1
RightHandPinky3	0	0	0	0	0	0	1
RightHandPinky4	0	0	0	0	0	0	1
RightHandRing1	0	0	0	0	0	0	1
RightHandRing2	0	0	0	0	0	0	1
RightHandRing3	0	0	0	0	0	0	1
RightHandRing4	0	0	0	0	0	0	1
RightHandMiddle1	0	0	0	0	0	0	1
RightHandMiddle2	0	0	0	0	0	0	1
RightHandMiddle3	0	0	0	0	0	0	1
RightHandMiddle4	0	0	0	0	0	0	1
RightHandIndex1	0	0	0	0	0	0	1
RightHandIndex2	0	0	0	0	0	0	1
RightHandIndex3	0	0	0	0	0	0	1
RightHandIndex4	0	0	0	0	0	0	1
RightHandThumb1	0	0	0	0	0	0	1
RightHandThumb2	0	0	0	0	0	0	1
RightHandThumb3	0	0	0	0	0	0	1
RightHandThumb4	0	0	0	0	0	0	1
LeftUpLeg	0	0	0	0	0	0	1
LeftLeg	0	0	0	0	0	0	1
LeftFoot	0	0	0	0	0	0	1
LeftToeBase	0	0	0	0	0	0	1
RightUpLeg	0	0	0	0	0	0	1
RightLeg	0	0	0	0	0	0	1
RightFoot	0	0	0	0	0	0	1
RightToeBase	0	0	0	0	0	0	1
[Hips]
5	0.2302947044	1020.408203	40.32914734	3.042081356	0.01539488975	-0.1944954693	1.0
6	0.08068013191	1007.283691	50.54508591	3.759056091	0.003418720094	-0.03575177863	1.0
7	-0.548677206	984.5107422	66.31049347	4.527479649	-0.05319327116	0.5688773394	1.0
8	-0.8868458271	950.4868164	87.31469727	5.375730991	-0.05693776533	0.9173357487	1.0
[Spine]
5	0	101.8159943	1.315000057	9.369336128	-0.004985964857	0.1950168163	1.0
6	0	101.8159943	1.315000057	8.333289146	-0.001065618126	0.03587664664	1.0
7	0	101.8159943	1.315000057	5.416077614	0.007273283787	-0.5714116096	1.0
8	0	101.8159943	1.315000057	1.131105304	-0.02991066501	-0.9186239839	1.0
[Spine1]
5	0	100.8349991	-10.00800037	-7.480841637	-3.19683968e-05	5.934277578e-05	1.0
6	0	100.8349991	-10.00800037	-8.333368301	-3.106341319e-05	5.981988943e-05	1.0
7	0	100.8349991	-10.00800037	-10.75985622	-2.845281233e-05	6.111159746e-05	1.0
8	0	100.8349991	-10.00800037	-14.33245945	-2.450281863e-05	6.277611828e-05	1.0
[Spine2]
5	0	91	-13.73399925	1.458286166	1.397137694e-08	3.1630222e-07	1.0
6	0	91	-13.73399925	-2.89658492e-05	2.28139676e-08	3.157664707e-07	1.0
7	0	91	-13.73399925	-4.104175568	4.762408068e-08	3.130715811e-07	1.0
8	0	91	-13.73399925	-10.11284256	8.326681922e-08	3.052340958e-07	1.0
[Neck]
5	0	166.7169952	-25.16200066	-0.4611893296	3.122556507e-07	3.532510391e-07	1.0
6	0	166.7169952	-25.16200066	-1.044204712	3.1618859e-07	3.497485181e-07	1.0
7	0	166.7169952	-25.16200066	-2.256504536	3.242546143e-07	3.4228799e-07	1.0
8	0	166.7169952	-25.16200066	-3.926503181	3.350504585e-07	3.317037169e-07	1.0
[Head]
5	0	96.17900085	16.84999847	-3.322929382	0.01749000698	-0.0009218163323	1.0
6	0	96.17900085	16.84999847	-2.08839488	3.725386341e-05	-3.143868162e-05	1.0
7	0	96.17900085	16.84999847	2.255400181	-0.04701670259	-0.003211792791	1.0
8	0	96.17900085	16.84999847	8.782094955	-0.1097007468	-0.03114007413	1.0
[LeftEye]
5	30.6760006	64.09500122	92.83599854	0	0	0	1.0
6	30.6760006	64.09500122	92.83599854	0	0	0	1.0
7	30.6760006	64.09500122	92.83599854	0	0	0	1.0
8	30.6760006	64.09500122	92.83599854	0	0	0	1.0
[RightEye]
5	-30.6760006	64.09500122	92.83499908	0	0	0	1.0
6	-30.6760006	64.09500122	92.83499908	0	0	0	1.0
7	-30.6760006	64.09500122	92.83499908	0	0	0	1.0
8	-30.6760006	64.09500122	92.83499908	0	0	0	1.0
[LeftShoulder]
5	45.70400238	109.4599991	-26.28000069	-2.41845727	5.32759285	-10.26800728	1.0
6	45.70400238	109.4599991	-26.28000069	-2.431703091	6.851007938	-9.142532349	1.0
7	45.70400238	109.4599991	-26.28000069	-1.175341845	8.899357796	-3.895699263	1.0
8	45.70400238	109.4599991	-26.28000069	1.533371329	10.96235752	4.275194645	1.0
[LeftArm]
5	105.923996	-5.24600029	-22.32099915	8.914892197	-4.715133667	-51.82579422	1.0
6	105.923996	-5.24600029	-22.32099915	7.264755726	-0.2334679514	-58.06587601	1.0
7	105.923996	-5.24600029	-22.32099915	1.519414902	10.82555485	-56.99609375	1.0
8	105.923996	-5.24600029	-22.32099915	1.140813231	24.76402283	-46.54011154	1.0
[LeftForeArm]
5	278.414978	-0.0009999999311	0	2.074625399e-06	-0.01063818857	-0.0001979476801	1.0
6	278.414978	-0.0009999999311	0	2.155863058e-06	-0.4166637361	-0.0002151382214	1.0
7	278.414978	-0.0009999999311	0	4.753230769e-07	-2.911040545	-0.000201116316	1.0
8	278.414978	-0.0009999999311	0	3.322369935e-07	-6.512864113	-0.0001972634782	1.0
[LeftHand]
5	283.2879944	0	0	-1.112960815	-2.998200178	2.248814106	1.0
6	283.2879944	0	0	-5.894140244	-2.348035097	3.36248517	1.0
7	283.2879944	0	0	-18.16581726	-0.1598309577	5.643725872	1.0
8	283.2879944	0	0	-35.55907822	3.7709589	7.641360283	1.0
[LeftHandThumb1]
5	24.6609993	-15.75	26.8239994	-6.708423138	-3.395493984	3.783619165	1.0
6	24.6609993	-15.75	26.8239994	-6.515938282	-5.594459057	5.268270016	1.0
7	24.6609993	-15.75	26.8239994	-6.534348011	-11.16159153	10.08723259	1.0
8	24.6609993	-15.75	26.8239994	-7.792140007	-18.95472527	17.65087318	1.0
[LeftHandThumb2]
5	32.29800034	-18.64699936	18.64699936	7.022644043	13.2863121	3.010271072	1.0
6	32.29800034	-18.64699936	18.64699936	6.421833038	12.43069267	2.707351446	1.0
7	32.29800034	-18.64699936	18.64699936	4.189301968	9.095170975	1.598343015	1.0
8	32.29800034	-18.64699936	18.64699936	1.373865843	4.944631577	0.4882253706	1.0
[LeftHandThumb3]
5	26.52600098	-15.31499958	15.31499958	-6.601540565	1.912518501	13.28331375	1.0
6	26.52600098	-15.31499958	15.31499958	-7.23757267	1.261262059	13.09553432	1.0
7	26.52600098	-15.31499958	15.31499958	-9.71958828	-1.318432927	12.40459824	1.0
8	26.52600098	-15.31499958	15.31499958	-13.49982452	-5.373113155	11.56730556	1.0
[LeftHandThumb4]
5	19.54599953	-11.28499985	11.28499985	0	0	0	1.0
6	19.54599953	-11.28499985	11.28499985	0	0	0	1.0
7	19.54599953	-11.28499985	11.28499985	0	0	0	1.0
8	19.54599953	-11.28499985	11.28499985	0	0	0	1.0
[LeftHandIndex1]
5	91.09299469	-5.170999527	22.60099792	-0.1258985251	4.298136711	-4.272590637	1.0
6	91.09299469	-5.170999527	22.60099792	-0.0726185441	2.677018642	-3.10709548	1.0
7	91.09299469	-5.170999527	22.60099792	0.1418242306	-1.771191001	0.9680187702	1.0
8	91.09299469	-5.170999527	22.60099792	0.4403218329	-8.061543465	6.976839542	1.0
[LeftHandIndex2]
5	36.76399994	0	0	-0.003896966577	0.19658041	-1.927400351	1.0
6	36.76399994	0	0	8.489994912e-07	-1.273499265e-06	-9.337169615e-08	1.0
7	36.76399994	0	0	7.27220031e-05	-0.003684012685	0.03611812741	1.0
8	36.76399994	0	0	-4.075197779e-08	6.112797024e-08	4.481841565e-09	1.0
[LeftHandIndex3]
5	28.83100128	0	0	-0.0009509444935	0.1336129308	-1.310002804	1.0
6	28.83100128	0	0	4.244997456e-07	-0	-2.981770115e-16	1.0
7	28.83100128	0	0	-0.02345253527	-0.5106875896	5.010802746	1.0
8	28.83100128	0	0	-0.1089789867	-1.096503019	10.824543	1.0
[LeftHandIndex4]
5	23.92700005	0	0	0	0	0	1.0
6	23.92700005	0	0	0	0	0	1.0
7	23.92700005	0	0	0	0	0	1.0
8	23.92700005	0	0	0	0	0	1.0
[LeftHandMiddle1]
5	95.33399963	0	0	-0.1811396629	3.55397439	-5.373240471	1.0
6	95.33399963	0	0	-0.07261768728	2.677019835	-3.10709548	1.0
7	95.33399963	0	0	0.2397613525	0.2892804444	4.07508707	1.0
8	95.33399963	0	0	0.4985117316	-2.98772049	14.75462723	1.0
[LeftHandMiddle2]
5	36.98199844	0	0	-0.001539075631	0.1236191243	-1.211838245	1.0
6	36.98199844	0	0	4.244997456e-07	7.951386796e-16	1.639973523e-15	1.0
7	36.98199844	0	0	2.838959699e-05	-0.002316344529	0.0227127485	1.0
8	36.98199844	0	0	3.289820597e-06	-2.776943802e-06	-3.513630509e-05	1.0
[LeftHandMiddle3]
5	29.50900078	0	0	-0.0003529679088	0.08297289163	-0.8133779764	1.0
6	29.50900078	0	0	5.16693035e-08	1.607693321e-06	-1.383077051e-05	1.0
7	29.50900078	0	0	-0.007259695791	-0.3118085563	3.055780649	1.0
8	29.50900078	0	0	-0.06283073127	-0.8176526427	8.049073219	1.0
[LeftHandMiddle4]
5	28.3390007	0	0	0	0	0	1.0
6	28.3390007	0	0	0	0	0	1.0
7	28.3390007	0	0	0	0	0	1.0
8	28.3390007	0	0	0	0	0	1.0
[LeftHandRing1]
5	91.04499817	-0.4390000105	-18.65100098	-0.1869352758	1.992498279	-5.480209351	1.0
6	91.04499817	-0.4390000105	-18.65100098	-0.07261768728	2.677019835	-3.10709548	1.0
7	91.04499817	-0.4390000105	-18.65100098	0.2121844441	4.292137146	4.287853718	1.0
8	91.04499817	-0.4390000105	-18.65100098	0.4462213218	6.104323387	15.14829826	1.0
[LeftHandRing2]
5	31.54000092	0	0	-0.001672217157	0.1287843436	-1.262471437	1.0
6	31.54000092	0	0	4.244997456e-07	7.951386796e-16	1.639973523e-15	1.0
7	31.54000092	0	0	3.063399345e-05	-0.002412281465	0.02365872078	1.0
8	31.54000092	0	0	5.960274393e-06	-1.105445699e-05	-1.910106221e-06	1.0
[LeftHandRing3]
5	29.37700081	0	0	-0.001942966832	0.1746002585	-1.712019205	1.0
6	29.37700081	0	0	7.951386796e-16	4.244997456e-07	3.112388569e-08	1.0
7	29.37700081	0	0	-0.03226389736	-0.585380435	5.748193741	1.0
8	29.37700081	0	0	-0.112039648	-1.12628758	11.117733	1.0
[LeftHandRing4]
5	26.47500038	0	0	0	0	0	1.0
6	26.47500038	0	0	0	0	0	1.0
7	26.47500038	0	0	0	0	0	1.0
8	26.47500038	0	0	0	0	0	1.0
[LeftHandPinky1]
5	80.77799988	-4.887000084	-38.06099701	-0.1561156511	-0.3795566261	-4.984705448	1.0
6	80.77799988	-4.887000084	-38.06099701	-0.07261768728	2.677016497	-3.107095718	1.0
7	80.77799988	-4.887000084	-38.06099701	0.1716758758	10.60871887	2.590808392	1.0
8	80.77799988	-4.887000084	-38.06099701	0.6980151534	21.74845886	9.909154892	1.0
[LeftHandPinky2]
5	36	0	0	-0.002355867531	0.1528931707	-1.498894572	1.0
6	36	0	0	2.89926561e-07	4.954948096e-08	-1.661380156e-05	1.0
7	36	0	0	4.80641902e-05	-0.002872175071	0.02809638716	1.0
8	36	0	0	3.269957233e-06	-5.486995178e-06	-5.086183955e-05	1.0
[LeftHandPinky3]
5	21.14200211	0	0	-0.001134197228	0.1416325867	-1.388642907	1.0
6	21.14200211	0	0	0	-0	1.490885031e-15	1.0
7	21.14200211	0	0	-0.02462134138	-0.5211794972	5.114397049	1.0
8	21.14200211	0	0	-0.1093787178	-1.100677371	10.86556625	1.0
[LeftHandPinky4]
5	19.75699997	0	0	0	0	0	1.0
6	19.75699997	0	0	0	0	0	1.0
7	19.75699997	0	0	0	0	0	1.0
8	19.75699997	0	0	0	0	0	1.0
[RightShoulder]
5	-45.70000076	109.4620056	-26.28000069	-2.418432713	-5.327597141	10.26801109	1.0
6	-45.70000076	109.4620056	-26.28000069	-2.431690693	-6.851010799	9.142530441	1.0
7	-45.70000076	109.4620056	-26.28000069	-1.175319791	-8.899357796	3.895699501	1.0
8	-45.70000076	109.4620056	-26.28000069	1.53337121	-10.96236324	-4.275198936	1.0
[RightArm]
5	-105.9280014	-5.248000145	-22.32099915	8.915082932	4.715078831	51.82591248	1.0
6	-105.9280014	-5.248000145	-22.32099915	7.264944077	0.2333963662	58.06601715	1.0
7	-105.9280014	-5.248000145	-22.32099915	1.519551516	-10.82559681	56.99624634	1.0
8	-105.9280014	-5.248000145	-22.32099915	1.140869141	-24.7640419	46.54024887	1.0
[RightForeArm]
5	-278.414978	0	0	2.234817657e-06	0.01043647062	8.782842542e-07	1.0
6	-278.414978	0	0	1.107929052e-06	0.4164611399	1.568638595e-06	1.0
7	-278.414978	0	0	-1.439923381e-06	2.910846233	-9.83269274e-06	1.0
8	-278.414978	0	0	5.690494618e-07	6.512657642	-6.259741895e-06	1.0
[RightHand]
5	-283.2879944	0	0.0009999999311	0.1066650301	2.862068176	-1.499773502	1.0
6	-283.2879944	0	0.0009999999311	-4.682253361	2.27472496	-2.60531497	1.0
7	-283.2879944	0	0.0009999999311	-16.98248863	0.2502980232	-4.887680054	1.0
8	-283.2879944	0	0.0009999999311	-34.42156601	-3.460039377	-6.949322224	1.0
[RightHandPinky1]
5	-80.76699829	-4.885000229	-38.06000137	-0.1274124235	0.6211904883	4.22840023	1.0
6	-80.76699829	-4.885000229	-38.06000137	-0.05218950659	-2.47895813	2.413301229	1.0
7	-80.76699829	-4.885000229	-38.06000137	0.1747073531	-11.20073795	-3.179982424	1.0
8	-80.76699829	-4.885000229	-38.06000137	0.5441884995	-19.63596344	-9.972355843	1.0
[RightHandPinky2]
5	-36	0	0.0009999999311	-0.001838781638	-0.1200226694	1.501759648	1.0
6	-36	0	0.0009999999311	2.660945597e-07	0.001591729815	6.499083156e-07	1.0
7	-36	0	0.0009999999311	3.43057909e-05	0.003872631816	-0.02812557295	1.0
8	-36	0	0.0009999999311	-7.282198453e-07	0.001593509689	3.923037184e-06	1.0
[RightHandPinky3]
5	-21.14200211	0	0	-0.0009031037334	-0.1126575768	1.391291261	1.0
6	-21.14200211	0	0	3.975693398e-16	-0	-2.782985405e-15	1.0
7	-21.14200211	0	0	-0.0196253024	0.4145646393	-5.124115944	1.0
8	-21.14200211	0	0	-0.08716371655	0.875472486	-10.88573837	1.0
[RightHandPinky4]
5	-19.75699997	0	0	0	0	0	1.0
6	-19.75699997	0	0	0	0	0	1.0
7	-19.75699997	0	0	0	0	0	1.0
8	-19.75699997	0	0	0	0	0	1.0
[RightHandRing1]
5	-91.03599548	-0.4390000105	-18.65100098	-0.1569337696	-1.744570136	4.771597385	1.0
6	-91.03599548	-0.4390000105	-18.65100098	-0.05218923464	-2.477364779	2.413300514	1.0
7	-91.03599548	-0.4390000105	-18.65100098	0.2136606872	-4.245068073	-4.945433617	1.0
8	-91.03599548	-0.4390000105	-18.65100098	0.4603295326	-6.281182289	-15.76757336	1.0
[RightHandRing2]
5	-31.54000092	0	0	-0.001331271953	-0.1024350971	1.264912844	1.0
6	-31.54000092	0	0	5.611290703e-07	-4.962931257e-07	7.45921061e-05	1.0
7	-31.54000092	0	0	2.351808871e-05	0.001917283516	-0.02369492501	1.0
8	-31.54000092	0	0	-6.652407478e-07	-3.59514928e-07	-3.786300795e-06	1.0
[RightHandRing3]
5	-29.37700081	0	0	-0.00155026291	-0.1388784349	1.715287924	1.0
6	-29.37700081	0	0	-2.125282208e-07	8.501128832e-07	4.453098512e-08	1.0
7	-29.37700081	0	0	-0.02570791356	0.4656219184	-5.759111404	1.0
8	-29.37700081	0	0	-0.08928099275	0.89583987	-11.13839817	1.0
[RightHandRing4]
5	-26.47500038	0	0	0	0	0	1.0
6	-26.47500038	0	0	0	0	0	1.0
7	-26.47500038	0	0	0	0	0	1.0
8	-26.47500038	0	0	0	0	0	1.0
[RightHandMiddle1]
5	-95.32500458	0	0	-0.1529852599	-3.307894468	4.696470261	1.0
6	-95.32500458	0	0	-0.05218923464	-2.477364779	2.413300514	1.0
7	-95.32500458	0	0	0.2447330207	-0.2386453599	-4.816436291	1.0
8	-95.32500458	0	0	0.5168679953	2.816993237	-15.56068707	1.0
[RightHandMiddle2]
5	-36.98199844	0	0	-0.001227705041	-0.09832787514	1.214180589	1.0
6	-36.98199844	0	0	-2.125281355e-07	-4.250562711e-07	-2.226544282e-08	1.0
7	-36.98199844	0	0	2.241866787e-05	0.001842328464	-0.02275551856	1.0
8	-36.98199844	0	0	4.940923191e-06	2.433297595e-06	2.82231922e-05	1.0
[RightHandMiddle3]
5	-29.50900078	0	0	-0.00028294191	-0.06801933795	0.8149163723	1.0
6	-29.50900078	0	0	2.441681772e-07	-0.002021743683	3.233785151e-07	1.0
7	-29.50900078	0	0	-0.00578763755	0.2459941655	-3.061636925	1.0
8	-29.50900078	0	0	-0.0500732176	0.6483435631	-8.064188004	1.0
[RightHandMiddle4]
5	-28.3390007	0	0.0009999999311	0	0	0	1.0
6	-28.3390007	0	0.0009999999311	0	0	0	1.0
7	-28.3390007	0	0.0009999999311	0	0	0	1.0
8	-28.3390007	0	0.0009999999311	0	0	0	1.0
[RightHandIndex1]
5	-91.08300018	-5.167999744	22.60099792	-0.1030513346	-4.074315071	3.611563683	1.0
6	-91.08300018	-5.167999744	22.60099792	-0.05218986049	-2.477361917	2.413314104	1.0
7	-91.08300018	-5.167999744	22.60099792	0.1515601873	1.88599813	-1.752387285	1.0
8	-91.08300018	-5.167999744	22.60099792	0.4336471856	8.050388336	-7.891815662	1.0
[RightHandIndex2]
5	-36.76399994	0	0	-0.003104890464	-0.1563633084	1.9310534	1.0
6	-36.76399994	0	0	9.75795178e-09	1.659626264e-06	-1.117814645e-05	1.0
7	-36.76399994	0	0	6.411940558e-05	0.002939256141	-0.03619842231	1.0
8	-36.76399994	0	0	2.641047331e-06	6.486126495e-06	1.857419738e-05	1.0
[RightHandIndex3]
5	-28.83100128	0	0	-0.000758441689	-0.1062792242	1.312489629	1.0
6	-28.83100128	0	0	-3.975693398e-16	-7.951386796e-16	-1.540581195e-15	1.0
7	-28.83100128	0	0	-0.01869447529	0.4062081277	-5.020326614	1.0
8	-28.83100128	0	0	-0.08684521914	0.8721455932	-10.84464455	1.0
[RightHandIndex4]
5	-23.92700005	0	0	0	0	0	1.0
6	-23.92700005	0	0	0	0	0	1.0
7	-23.92700005	0	0	0	0	0	1.0
8	-23.92700005	0	0	0	0	0	1.0
[RightHandThumb1]
5	-24.64799881	-15.72700024	26.82600021	-7.765696049	5.456529617	-3.508910894	1.0
6	-24.64799881	-15.72700024	26.82600021	-7.53546524	7.62022543	-5.027772427	1.0
7	-24.64799881	-15.72700024	26.82600021	-7.460600853	13.08564281	-9.945516586	1.0
8	-24.64799881	-15.72700024	26.82600021	-8.597086906	20.7444725	-17.67356682	1.0
[RightHandThumb2]
5	-32.29800034	-18.64699936	18.64699936	7.704050064	-14.96240711	-4.095406055	1.0
6	-32.29800034	-18.64699936	18.64699936	7.098089695	-14.1049366	-3.792279959	1.0
7	-32.29800034	-18.64699936	18.64699936	4.884357929	-10.84770584	-2.712466717	1.0
8	-32.29800034	-18.64699936	18.64699936	1.856004357	-6.21495533	-1.469304562	1.0
[RightHandThumb3]
5	-26.52600098	-15.31399918	15.31399918	-3.298880339	-7.357749462	-14.46093655	1.0
6	-26.52600098	-15.31399918	15.31399918	-3.950473547	-6.71465683	-14.22185898	1.0
7	-26.52600098	-15.31399918	15.31399918	-6.483667374	-4.162013054	-13.33253956	1.0
8	-26.52600098	-15.31399918	15.31399918	-10.29823685	-0.128501609	-12.19783211	1.0
[RightHandThumb4]
5	-19.54599953	-11.28499985	11.28499985	0	0	0	1.0
6	-19.54599953	-11.28499985	11.28499985	0	0	0	1.0
7	-19.54599953	-11.28499985	11.28499985	0	0	0	1.0
8	-19.54599953	-11.28499985	11.28499985	0	0	0	1.0
[LeftUpLeg]
5	82.07800293	-67.51699829	-15.99599934	-11.48652363	-0.3735815883	-0.04733041301	1.0
6	82.07800293	-67.51699829	-15.99599934	-12.93089867	-0.3918823004	-0.0822141543	1.0
7	82.07800293	-67.51699829	-15.99599934	-17.02342033	-0.252692461	-0.2221769392	1.0
8	82.07800293	-67.51699829	-15.99599934	-21.4942646	0.5553483963	0.5320703387	1.0
[LeftLeg]
5	0	-443.7049866	2.845999956	22.86561775	1.335760951	0.9279934168	1.0
6	0	-443.7049866	2.845999956	26.21679497	-0.9826165438	-0.4414791167	1.0
7	0	-443.7049866	2.845999956	35.44979095	-4.190310001	-4.420425415	1.0
8	0	-443.7049866	2.845999956	45.73019791	-3.286505461	-7.711719513	1.0
[LeftFoot]
5	0	-444.2789917	-29.8219986	-11.71154118	-2.466068268	0.1634096652	1.0
6	0	-444.2789917	-29.8219986	-17.03470802	-0.1080296338	0.4744566083	1.0
7	0	-444.2789917	-29.8219986	-24.46923256	4.807559967	1.147476912	1.0
8	0	-444.2789917	-29.8219986	-31.35374451	6.266765594	2.162512302	1.0
[LeftToeBase]
5	0	-87.28699493	107.1060028	-4.59322834	0.0001910807041	-0.0007525712717	1.0
6	0	-87.28699493	107.1060028	-0.975168407	4.961301556e-07	-4.076891287e-07	1.0
7	0	-87.28699493	107.1060028	4.600467682	-0.009335986339	0.03849949688	1.0
8	0	-87.28699493	107.1060028	5.679001331	-0.02199586481	0.06763055176	1.0
[RightUpLeg]
5	-82.07800293	-67.51699829	-15.99599934	-9.453988075	-0.1488089114	0.4779706001	1.0
6	-82.07800293	-67.51699829	-15.99599934	-12.9414711	-0.4419012368	0.2144438624	1.0
7	-82.07800293	-67.51699829	-15.99599934	-20.22781754	-0.8406177163	-0.7261140347	1.0
8	-82.07800293	-67.51699829	-15.99599934	-30.00030327	-1.799939513	-1.73593986	1.0
[RightLeg]
5	0	-443.7049866	2.861999989	19.38237762	-2.028270721	-1.031199098	1.0
6	0	-443.7049866	2.861999989	26.17661095	0.3838891387	0.1887850612	1.0
7	0	-443.7049866	2.861999989	36.9175148	4.23755455	4.499536037	1.0
8	0	-443.7049866	2.861999989	48.57983017	4.323825836	8.699818611	1.0
[RightFoot]
5	0	-444.2770081	-29.83799934	-12.96084976	2.354382753	0.002857038751	1.0
6	0	-444.2770081	-29.83799934	-16.99312973	-0.03954984248	-0.2747998834	1.0
7	0	-444.2770081	-29.83799934	-20.96258163	-5.206949234	-1.040173054	1.0
8	0	-444.2770081	-29.83799934	-23.45357704	-7.490834236	-2.315906286	1.0
[RightToeBase]
5	0	-87.28699493	107.1060028	-1.515573604e-05	-2.909377805e-08	-1.999551955e-07	1.0
6	0	-87.28699493	107.1060028	-1.515573604e-05	-2.909377805e-08	-1.999551955e-07	1.0
7	0	-87.28699493	107.1060028	-1.515573604e-05	-2.909377805e-08	-1.999551955e-07	1.0
8	0	-87.28699493	107.1060028	-1.515573604e-05	-2.909377805e-08	-1.999551955e-07	1.0
[EndOfFile]
